<svg width="800px" height="800px"  style="vertical-align: middle;fill: #000;overflow: hidden;" viewBox="0 0 1024 1024" version="1.1" xmlns="http://www.w3.org/2000/svg"><path d="M801.8 202.9H226.6c-6.8 0-13.2-3.5-16.8-9.2-3.7-5.7-4.2-13-1.3-19.2l47.6-103.2c3.3-7.1 10.4-11.6 18.2-11.6h479.9c7.8 0 14.9 4.5 18.2 11.6L820 174.5c2.9 6.2 2.4 13.4-1.3 19.2-3.8 5.7-10.1 9.2-16.9 9.2z m-544-40h512.7l-29.2-63.2H287l-29.2 63.2z"  /><path d="M789.8 875.1H238.6c-17.6 0-32-14.4-32-32v-648c0-17.6 14.4-32 32-32h551.2c17.6 0 32 14.4 32 32v648c0 17.6-14.4 32-32 32z m-543.2-40h535.2v-632H246.6v632z"  /><path d="M797.3 436.2H231c-11 0-20-9-20-20s9-20 20-20h566.3c11 0 20 9 20 20s-8.9 20-20 20zM797.3 642H231c-11 0-20-9-20-20s9-20 20-20h566.3c11 0 20 9 20 20s-8.9 20-20 20zM295 960.8c-11 0-20-9-20-20v-64.5c0-11 9-20 20-20s20 9 20 20v64.5c0 11-8.9 20-20 20zM733.3 960.8c-11 0-20-9-20-20v-64.5c0-11 9-20 20-20s20 9 20 20v64.5c0 11-8.9 20-20 20zM545.7 763.2h-63c-11 0-20-9-20-20s9-20 20-20h63c11 0 20 9 20 20s-9 20-20 20z"  /><path d="M545.7 542.1h-63c-11 0-20-9-20-20s9-20 20-20h63c11 0 20 9 20 20s-9 20-20 20z"  /><path d="M545.7 321h-63c-11 0-20-9-20-20s9-20 20-20h63c11 0 20 9 20 20s-9 20-20 20z"  /></svg>