<?xml version="1.0" encoding="iso-8859-1"?>
<!-- Uploaded to: SVG Repo, www.svgrepo.com, Generator: SVG Repo Mixer Tools -->
<svg fill="#000000" version="1.1" id="Layer_1" xmlns="http://www.w3.org/2000/svg" xmlns:xlink="http://www.w3.org/1999/xlink" 
	 viewBox="0 0 512 512" xml:space="preserve">
<g>
	<g>
		<path d="M502.34,178.717H338.113H231.849v-67.623c0-5.335-4.321-9.66-9.66-9.66h-38.641h-38.642c-5.339,0-9.66,4.325-9.66,9.66
			v67.623H9.66c-5.34,0-9.66,4.325-9.66,9.66v173.887c0,5.335,4.321,9.66,9.66,9.66h28.981l-17.387,23.184
			c-3.207,4.269-2.34,10.326,1.934,13.524c1.736,1.307,3.764,1.934,5.783,1.934c2.943,0,5.84-1.335,7.736-3.863l26.085-34.778
			h111.094h38.642h57.962h67.623h111.094l26.085,34.778c1.896,2.528,4.793,3.863,7.736,3.863c2.019,0,4.047-0.627,5.783-1.934
			c4.274-3.198,5.141-9.255,1.934-13.524l-17.387-23.184h28.981c5.34,0,9.66-4.325,9.66-9.66v-77.283V265.66v-77.283
			C512,183.042,507.679,178.717,502.34,178.717z M193.208,120.755h19.321v57.962h-19.321V120.755z M164.226,352.604H19.321V198.038
			h125.585h19.321V352.604z M173.887,178.717h-19.321v-57.962h19.321V178.717z M260.83,352.604h-38.642v-67.623h38.642V352.604z
			 M328.453,352.604h-48.302v-77.283c0-5.335-4.321-9.66-9.66-9.66h-57.962c-5.34,0-9.66,4.325-9.66,9.66v77.283h-19.321V198.038
			h38.641h106.264V352.604z M492.679,352.604H347.774v-67.623h144.906V352.604z M492.679,265.66H347.774v-67.623h144.906V265.66z"/>
	</g>
</g>
<g>
	<g>
		<rect x="405.736" y="217.358" width="28.981" height="19.321"/>
	</g>
</g>
<g>
	<g>
		<rect x="405.736" y="304.302" width="28.981" height="19.321"/>
	</g>
</g>
</svg>